<svg width="41" height="37" viewBox="0 0 41 37" fill="none" xmlns="http://www.w3.org/2000/svg">
<path d="M20.4934 22.0562C22.4615 22.0562 24.057 20.46 24.057 18.491C24.057 16.522 22.4615 14.9258 20.4934 14.9258C18.5252 14.9258 16.9297 16.522 16.9297 18.491C16.9297 20.46 18.5252 22.0562 20.4934 22.0562Z" fill="#F8F9FA"/>
<path d="M40.4826 18.4915C40.4826 15.6915 37.1971 13.2567 32.0863 11.7959C33.3727 6.63065 32.9207 2.56109 30.487 1.16978C28.0532 -0.238912 24.3157 1.41326 20.4913 5.10022C16.6669 1.39587 12.9294 -0.238912 10.4957 1.16978C8.47914 2.335 7.73164 5.29152 8.4096 9.50022C8.53129 10.248 8.70513 11.0133 8.89635 11.8133C3.78553 13.2741 0.5 15.7089 0.5 18.5089C0.5 21.3089 3.78553 23.7263 8.89635 25.2046C8.70513 25.9872 8.53129 26.7698 8.4096 27.5176C7.73164 31.7263 8.47914 34.6828 10.4957 35.848C11.0867 36.1959 11.7647 36.3698 12.5122 36.3698C14.2853 36.3698 16.4235 35.3959 18.7529 33.5002C19.3266 33.0307 19.9176 32.4915 20.4913 31.935C21.065 32.4915 21.656 33.0307 22.2297 33.5002C24.5591 35.3959 26.6973 36.3698 28.4704 36.3698C29.2179 36.3698 29.8959 36.1959 30.487 35.848C32.5035 34.6828 33.251 31.7263 32.5904 27.5176C32.4687 26.7698 32.2949 26.0046 32.1037 25.2046C37.2145 23.7437 40.5 21.3089 40.5 18.5089L40.4826 18.4915ZM29.6178 2.66544C31.1823 3.56978 31.53 6.87413 30.4 11.3611C28.766 10.9785 26.9754 10.7002 25.0806 10.5263C23.9854 8.97848 22.8381 7.56978 21.7082 6.335C24.3505 3.77848 26.8016 2.38718 28.4878 2.38718C28.9224 2.38718 29.3049 2.47413 29.6352 2.66544H29.6178ZM26.0715 21.7089C25.4457 22.7698 24.8025 23.8133 24.1419 24.7872C22.9772 24.8741 21.7603 24.9263 20.5087 24.9263C19.2571 24.9263 18.0402 24.8741 16.8755 24.7872C16.2149 23.8133 15.5543 22.7698 14.9459 21.7089C14.3201 20.6307 13.7638 19.5698 13.2423 18.4915C13.7638 17.4133 14.3201 16.3524 14.9459 15.2741C15.5717 14.1785 16.2323 13.1524 16.8755 12.1959C18.0402 12.1089 19.2571 12.0567 20.5087 12.0567C21.7603 12.0567 22.9772 12.1089 24.1419 12.1959C24.8025 13.1524 25.4457 14.1785 26.0715 15.2741C26.6799 16.335 27.2536 17.4133 27.7751 18.4915C27.271 19.5524 26.7147 20.6133 26.0715 21.7089ZM28.6791 20.5263C29.1658 21.6915 29.583 22.822 29.9307 23.935C28.8181 24.1785 27.6186 24.4046 26.3496 24.5611C26.7668 23.9176 27.1667 23.2567 27.5665 22.5785C27.9663 21.9002 28.3314 21.2046 28.6791 20.5263ZM20.4913 29.3959C19.709 28.5437 18.9268 27.6046 18.1619 26.5959C18.9268 26.6307 19.6917 26.648 20.4913 26.648C21.291 26.648 22.0558 26.6307 22.8207 26.5959C22.0558 27.6046 21.2736 28.5263 20.4913 29.3959ZM14.633 24.5611C13.364 24.4046 12.1645 24.1959 11.0519 23.935C11.3996 22.822 11.8168 21.6915 12.3036 20.5263C12.6512 21.2046 13.0163 21.9002 13.4161 22.5785C13.8159 23.2567 14.2158 23.9176 14.633 24.5611ZM12.3036 16.4393C11.8168 15.2741 11.3996 14.1437 11.0519 13.0307C12.1645 12.7872 13.364 12.5611 14.633 12.4046C14.2158 13.048 13.8159 13.7089 13.4161 14.3872C13.0163 15.0654 12.6512 15.7437 12.3036 16.4393ZM20.4913 7.56978C21.2562 8.40457 22.0385 9.3437 22.8207 10.3698C22.0558 10.335 21.291 10.3176 20.4913 10.3176C19.6917 10.3176 18.9268 10.335 18.1619 10.3698C18.9442 9.3437 19.709 8.40457 20.4913 7.56978ZM27.5665 14.4046C27.1667 13.7263 26.7668 13.0654 26.3496 12.422C27.6186 12.5785 28.8181 12.7872 29.9307 13.048C29.6004 14.1437 29.1832 15.2741 28.6791 16.4567C28.3314 15.7785 27.9489 15.0828 27.5665 14.4046ZM10.1132 9.22196C9.57432 5.83065 10.0263 3.44805 11.3648 2.68283C11.6951 2.49152 12.0776 2.40457 12.5122 2.40457C14.1984 2.40457 16.6495 3.79587 19.2918 6.35239C18.1445 7.58718 17.0146 8.99587 15.9194 10.5437C14.0246 10.7176 12.234 10.9959 10.6 11.3785C10.4087 10.648 10.2523 9.91761 10.148 9.23935L10.1132 9.22196ZM2.23837 18.4915C2.23837 16.6828 4.91547 14.735 9.36571 13.4654C9.86984 15.0828 10.5304 16.7698 11.3127 18.4915C10.5304 20.1959 9.86984 21.8828 9.36571 23.5176C4.93286 22.248 2.23837 20.3176 2.23837 18.4915ZM17.6578 32.1089C14.998 34.2654 12.7034 35.0654 11.3648 34.3002C10.0263 33.535 9.57432 31.135 10.1132 27.7611C10.2175 27.0654 10.3914 26.3524 10.5652 25.622C12.1993 26.0046 13.9898 26.2828 15.8846 26.4567C16.9798 27.9872 18.1097 29.4133 19.2571 30.6654C18.7182 31.1872 18.1793 31.6915 17.6404 32.1263L17.6578 32.1089ZM30.8694 27.7611C31.4083 31.1524 30.9563 33.535 29.6178 34.3002C28.2792 35.0654 25.9846 34.2654 23.3249 32.1089C22.786 31.6741 22.2471 31.1698 21.7082 30.648C22.8729 29.3959 24.0028 27.9872 25.0806 26.4567C26.9754 26.2828 28.766 26.0046 30.4 25.622C30.5913 26.3524 30.7477 27.0828 30.852 27.7611H30.8694ZM31.6169 23.5002C31.1128 21.8828 30.4522 20.1959 29.6699 18.4741C30.4696 16.735 31.1128 15.048 31.6169 13.448C36.0671 14.7176 38.7442 16.648 38.7442 18.4741C38.7442 20.3002 36.0671 22.2307 31.6169 23.5002Z" fill="#F8F9FA"/>
</svg>
