<?xml version="1.0" standalone="no"?>
<!DOCTYPE svg PUBLIC "-//W3C//DTD SVG 20010904//EN"
 "http://www.w3.org/TR/2001/REC-SVG-20010904/DTD/svg10.dtd">
<svg version="1.0" xmlns="http://www.w3.org/2000/svg"
 width="35" height="25" viewBox="0 0 300.000000 234.000000"
 preserveAspectRatio="xMidYMid meet">
<metadata>
Created by potrace 1.10, written by Peter Selinger 2001-2011
</metadata>
<g transform="translate(0.000000,234.000000) scale(0.100000,-0.100000)"
fill="#000000" stroke="none">
<path d="M585 2229 c-82 -12 -176 -60 -216 -110 -60 -76 -69 -130 -69 -408 0
-276 -8 -325 -61 -386 -16 -18 -47 -39 -67 -46 -63 -20 -72 -34 -72 -108 0
-36 4 -71 8 -77 4 -6 32 -22 63 -36 31 -14 65 -39 78 -56 46 -66 51 -99 51
-366 0 -279 6 -320 60 -395 41 -56 108 -97 191 -115 87 -20 149 -20 177 0 18
13 22 25 22 73 0 73 -14 87 -95 94 -89 7 -130 28 -156 79 -22 40 -23 59 -29
308 -6 243 -8 270 -29 323 -20 50 -84 145 -109 161 -5 3 10 25 32 49 46 47 80
112 96 179 5 24 10 141 10 260 0 231 9 301 42 344 29 36 93 64 148 64 69 0 90
20 90 84 0 29 -6 60 -12 69 -17 21 -77 28 -153 16z m145 -28 c12 -23 13 -91 2
-107 -4 -6 -33 -14 -65 -18 -68 -7 -122 -28 -155 -58 -42 -41 -52 -103 -52
-340 0 -163 -4 -237 -16 -288 -17 -74 -56 -142 -109 -188 l-33 -30 35 -33 c40
-39 75 -95 99 -159 14 -36 18 -97 23 -310 6 -254 7 -267 30 -306 30 -54 67
-74 152 -83 82 -9 99 -23 99 -81 0 -65 -14 -73 -116 -68 -145 7 -237 63 -286
172 -21 48 -23 67 -28 336 -6 308 -8 324 -64 383 -14 16 -51 39 -81 52 l-55
25 0 59 c0 79 5 89 51 101 51 14 93 51 121 108 22 45 23 60 29 332 4 178 10
299 18 322 38 120 161 196 318 197 62 1 74 -2 83 -18z"/>
<path d="M2310 2227 c-22 -11 -25 -20 -28 -77 -4 -78 8 -90 83 -90 70 0 132
-33 159 -85 19 -37 21 -62 27 -315 6 -293 9 -313 62 -397 14 -22 39 -51 55
-64 l29 -24 -48 -53 c-85 -93 -92 -125 -99 -437 -4 -155 -11 -281 -17 -295
-26 -61 -98 -100 -183 -100 -59 0 -70 -14 -70 -83 0 -88 5 -92 97 -91 107 2
182 32 248 98 82 82 87 103 94 431 5 246 8 284 25 315 27 52 65 88 105 101 62
20 71 34 71 109 0 74 -11 92 -64 104 -16 4 -46 24 -67 44 -61 62 -69 107 -69
387 0 181 -4 255 -15 298 -37 144 -131 214 -310 231 -40 4 -69 2 -85 -7z m235
-41 c30 -15 70 -46 90 -69 57 -66 65 -110 65 -361 0 -242 10 -337 40 -395 25
-49 70 -88 119 -101 45 -12 51 -23 51 -90 0 -67 -6 -78 -51 -90 -54 -15 -102
-60 -130 -122 -22 -50 -24 -67 -29 -333 -6 -320 -9 -336 -92 -411 -64 -59
-141 -86 -237 -82 l-76 3 -3 60 c-4 70 9 85 73 85 80 0 139 32 173 95 14 25
18 75 22 300 7 316 14 345 104 442 l52 56 -38 35 c-98 89 -117 167 -119 482
-1 252 -5 280 -52 329 -32 34 -69 48 -152 59 l-60 7 -3 53 c-5 79 4 86 110 80
68 -4 100 -12 143 -32z"/>
<path d="M1549 2125 c-25 -8 -58 -27 -74 -43 l-29 -29 -49 25 c-136 68 -326
19 -428 -110 -21 -26 -40 -56 -43 -66 -3 -9 -27 -26 -53 -36 -59 -24 -151
-114 -182 -179 -33 -68 -47 -164 -34 -223 10 -43 9 -51 -13 -83 -37 -57 -54
-118 -54 -197 0 -126 57 -238 149 -296 33 -20 54 -42 67 -70 23 -52 103 -122
161 -142 32 -11 83 -16 165 -16 134 0 155 -7 209 -67 48 -53 91 -132 129 -238
53 -145 75 -165 186 -165 132 0 162 43 163 237 1 61 5 123 11 137 14 37 47 53
133 65 124 17 220 77 275 170 15 25 54 73 87 106 80 80 100 134 100 270 0 89
-3 107 -28 160 -15 33 -36 68 -45 78 -14 15 -17 39 -17 121 0 94 -2 106 -33
168 -42 86 -120 159 -203 189 -44 16 -64 30 -75 50 -24 47 -110 126 -167 153
-100 47 -216 59 -308 31z m193 -6 c112 -24 211 -89 265 -174 22 -35 38 -48 74
-60 165 -55 254 -200 239 -385 -6 -62 -5 -67 27 -104 48 -57 68 -125 67 -226
0 -47 -6 -103 -13 -125 -20 -61 -69 -132 -107 -156 -19 -11 -44 -38 -54 -60
-27 -51 -76 -106 -121 -134 -40 -26 -129 -55 -168 -55 -55 0 -102 -21 -121
-53 -17 -27 -20 -52 -21 -147 -1 -141 -13 -187 -58 -217 -62 -42 -189 -25
-225 29 -9 14 -27 56 -40 94 -54 160 -135 281 -210 315 -34 15 -56 17 -136 12
-128 -8 -193 11 -261 74 -27 25 -56 63 -66 85 -12 27 -30 46 -54 58 -47 24
-105 90 -131 148 -17 37 -22 68 -22 142 -1 89 1 100 34 165 33 67 34 74 31
160 -2 73 1 101 19 148 29 78 113 168 183 197 43 18 58 30 77 67 84 159 322
230 463 137 20 -13 37 -20 37 -15 0 18 71 64 118 77 60 16 107 17 174 3z"/>
<path d="M1584 2012 c-47 -23 -64 -57 -64 -132 0 -55 -15 -73 -57 -68 -21 2
-30 10 -36 33 -16 54 -41 98 -69 119 -34 24 -126 33 -187 16 -56 -15 -124 -78
-152 -141 -20 -44 -29 -52 -72 -67 -67 -23 -129 -80 -156 -143 -23 -52 -24
-108 -6 -212 6 -32 4 -42 -14 -58 -11 -11 -30 -38 -41 -59 -61 -120 -18 -271
93 -330 28 -15 51 -36 58 -53 23 -56 70 -109 114 -128 38 -17 58 -18 159 -13
111 7 116 6 170 -20 101 -49 201 -191 256 -361 34 -105 66 -129 110 -85 18 18
20 33 20 133 0 61 5 129 10 149 23 82 93 131 210 148 120 17 181 55 220 135
13 28 39 57 64 74 25 18 53 50 71 83 26 46 29 64 30 133 0 88 -19 137 -70 185
-43 40 -46 53 -29 120 37 145 -47 281 -203 326 -49 14 -55 19 -85 76 -17 33
-46 71 -63 84 -85 64 -209 89 -281 56z m184 -18 c69 -23 117 -65 152 -135 29
-57 31 -58 95 -77 83 -25 137 -69 171 -137 23 -48 26 -63 21 -122 -3 -38 -9
-82 -12 -99 -6 -28 -2 -37 34 -74 54 -56 85 -138 76 -206 -10 -80 -46 -147
-99 -183 -29 -20 -52 -46 -62 -69 -18 -44 -58 -88 -97 -109 -16 -8 -67 -21
-114 -29 -188 -33 -233 -90 -233 -295 0 -104 -2 -121 -19 -138 -34 -34 -57
-17 -82 58 -75 228 -184 369 -317 408 -49 14 -69 14 -137 5 -127 -18 -191 10
-240 108 -18 35 -41 59 -82 87 -75 49 -107 109 -106 197 0 71 18 118 63 170
l33 38 -18 50 c-21 60 -16 137 14 196 24 47 91 107 129 117 45 11 72 34 91 79
34 77 103 131 185 142 98 14 180 -32 192 -107 9 -53 25 -72 62 -72 47 0 62 18
62 75 0 61 22 116 52 128 37 14 132 11 186 -6z"/>
<path d="M1154 1704 c-31 -30 -26 -69 12 -98 59 -44 67 -119 20 -181 -38 -50
-41 -71 -11 -101 69 -68 165 43 165 191 0 57 -5 79 -28 120 -28 51 -81 95
-114 95 -10 0 -30 -11 -44 -26z m83 -4 c84 -51 118 -184 73 -287 -29 -69 -59
-95 -101 -91 -29 2 -35 7 -37 30 -2 18 6 40 22 61 51 67 42 161 -18 201 -34
21 -35 68 -4 90 28 20 26 20 65 -4z"/>
<path d="M1680 1700 c-6 -12 -10 -35 -8 -53 3 -34 15 -43 100 -72 58 -20 132
-84 160 -139 15 -28 23 -66 26 -122 4 -72 1 -89 -20 -136 -51 -112 -138 -168
-270 -176 l-78 -5 0 237 c0 145 -4 245 -10 257 -12 22 -78 27 -98 7 -9 -9 -12
-90 -12 -304 0 -259 2 -293 17 -305 22 -19 175 -24 247 -9 337 70 469 465 240
719 -87 97 -264 157 -294 101z m178 -29 c108 -55 195 -177 212 -299 11 -80 -5
-186 -37 -252 -33 -68 -122 -159 -186 -188 -82 -38 -173 -55 -261 -48 -44 4
-86 12 -93 18 -18 15 -19 568 -1 586 16 16 63 15 77 -1 7 -9 12 -98 13 -258
l3 -244 73 2 c131 4 243 76 295 191 32 72 29 182 -7 255 -34 70 -101 130 -175
157 -31 11 -63 24 -71 29 -20 11 -24 44 -10 72 11 19 18 21 60 16 27 -3 75
-19 108 -36z"/>
<path d="M939 1289 c-19 -19 -21 -29 -16 -81 11 -122 97 -205 220 -215 62 -5
66 -4 83 21 13 21 15 34 8 53 -11 30 -24 39 -83 54 -61 15 -96 53 -105 112
-11 72 -64 99 -107 56z m82 -19 c4 -8 11 -33 14 -54 8 -50 49 -91 106 -106 64
-17 74 -24 77 -54 7 -55 -43 -71 -129 -41 -89 32 -140 93 -154 187 -9 62 6 90
47 86 17 -2 35 -10 39 -18z"/>
</g>
</svg>
